<?xml version="1.0" encoding="utf-8"?>
<svg width="149.54327px" height="14.746094px" viewBox="0 0 149.54327 14.746094" version="1.1" xmlns:xlink="http://www.w3.org/1999/xlink" xmlns="http://www.w3.org/2000/svg">
  <path d="M142.16 14.5459L142.16 3.6377L145.964 3.6377L145.964 5.7129L146.081 5.7129C146.28 4.94467 146.596 4.38314 147.029 4.02833C147.462 3.67351 147.969 3.4961 148.552 3.4961C148.878 3.4961 149.208 3.54493 149.543 3.64259L149.543 6.98731C149.351 6.92221 149.112 6.87338 148.826 6.84083C148.542 6.80828 148.3 6.792 148.098 6.792C147.519 6.792 147.037 6.9808 146.653 7.35841C146.272 7.73601 146.081 8.23731 146.081 8.86231L146.081 14.5459L142.16 14.5459L142.16 14.5459ZM135.226 14.7461C133.478 14.7461 132.103 14.2497 131.1 13.2568C130.101 12.264 129.601 10.8854 129.601 9.1211C129.601 7.9948 129.827 7.0101 130.28 6.167C130.735 5.3239 131.378 4.66798 132.208 4.19923C133.039 3.73048 134.017 3.4961 135.143 3.4961C136.24 3.4961 137.194 3.72071 138.004 4.16993C138.818 4.61915 139.448 5.26205 139.894 6.09864C140.343 6.93523 140.568 7.93295 140.568 9.0918L140.568 10L133.463 10L133.463 10.1709C133.463 10.695 133.626 11.1296 133.952 11.4746C134.277 11.8164 134.731 11.9873 135.314 11.9873C135.714 11.9873 136.064 11.9043 136.364 11.7383C136.666 11.569 136.875 11.3314 136.989 11.0254L140.568 11.0254C140.382 12.1615 139.824 13.0664 138.893 13.7402C137.965 14.4108 136.743 14.7461 135.226 14.7461L135.226 14.7461ZM133.463 7.8418L136.959 7.8418C136.95 7.37305 136.78 6.99057 136.452 6.69434C136.123 6.39812 135.714 6.25001 135.226 6.25001C134.747 6.25001 134.336 6.39649 133.991 6.68946C133.649 6.98243 133.473 7.36654 133.463 7.8418L133.463 7.8418ZM120.996 8.40821L120.996 14.5459L117.075 14.5459L117.075 7.62939e-06L120.85 7.62939e-06L120.85 5.7129L120.967 5.7129C121.211 5.01628 121.62 4.47266 122.193 4.08204C122.765 3.69141 123.456 3.4961 124.263 3.4961C125.034 3.4961 125.705 3.67188 126.275 4.02345C126.844 4.37175 127.287 4.85352 127.603 5.46876C127.918 6.08399 128.073 6.79037 128.067 7.5879L128.067 14.5459L124.146 14.5459L124.146 8.40821C124.152 7.86785 124.019 7.44467 123.745 7.13868C123.475 6.82943 123.088 6.67481 122.583 6.67481C122.105 6.67481 121.72 6.82943 121.431 7.13868C121.144 7.44467 120.999 7.86785 120.996 8.40821L120.996 8.40821ZM110.199 14.7461C109.014 14.7461 108 14.5101 107.157 14.0381C106.317 13.5661 105.671 12.9085 105.218 12.0654C104.769 11.2191 104.544 10.2376 104.544 9.1211C104.544 8.00131 104.769 7.01986 105.218 6.17677C105.671 5.33041 106.317 4.67286 107.157 4.20411C108 3.73211 109.014 3.4961 110.199 3.4961C111.27 3.4961 112.196 3.68979 112.977 4.07716C113.761 4.46127 114.368 5.00489 114.798 5.70802C115.231 6.41114 115.449 7.23634 115.452 8.1836L111.82 8.1836C111.768 7.61068 111.602 7.17449 111.322 6.87501C111.045 6.57227 110.69 6.42091 110.257 6.42091C109.74 6.42091 109.326 6.64226 109.017 7.08497C108.708 7.52768 108.553 8.19662 108.553 9.0918C108.553 9.98699 108.708 10.6559 109.017 11.0986C109.326 11.5413 109.74 11.7627 110.257 11.7627C110.687 11.7627 111.043 11.613 111.326 11.3135C111.613 11.0107 111.777 10.5729 111.82 10L115.452 10C115.436 11.4453 114.959 12.5977 114.022 13.457C113.088 14.3164 111.813 14.7461 110.199 14.7461L110.199 14.7461ZM96.1636 14.7168C95.1219 14.7168 94.2691 14.458 93.605 13.9404C92.9442 13.4196 92.6138 12.6172 92.6138 11.5332C92.6138 10.7324 92.7912 10.0895 93.146 9.6045C93.5009 9.11622 93.981 8.75164 94.5865 8.51075C95.1919 8.26661 95.869 8.1185 96.6177 8.06641C97.5357 8.00131 98.1867 7.90365 98.5708 7.77345C98.955 7.64324 99.147 7.42025 99.147 7.1045L99.147 7.0752C99.147 6.792 99.038 6.5739 98.8199 6.42091C98.6018 6.26791 98.3235 6.19141 97.9849 6.19141C97.6106 6.19141 97.3062 6.27442 97.0718 6.44044C96.8374 6.6032 96.6958 6.85222 96.647 7.18751L93.0386 7.18751C93.0874 6.52345 93.299 5.91146 93.6734 5.35157C94.051 4.79168 94.6011 4.34246 95.3238 4.00391C96.0497 3.66537 96.9546 3.4961 98.0386 3.4961C99.0803 3.4961 99.9755 3.65561 100.724 3.97462C101.476 4.29037 102.054 4.71843 102.458 5.2588C102.864 5.79591 103.068 6.40137 103.068 7.0752L103.068 14.5459L99.4009 14.5459L99.4009 13.0127L99.3179 13.0127C98.9859 13.6214 98.5546 14.0576 98.024 14.3213C97.4934 14.585 96.8733 14.7168 96.1636 14.7168L96.1636 14.7168ZM97.4429 12.2461C97.8889 12.2461 98.2893 12.1094 98.6441 11.8359C98.9989 11.5625 99.1763 11.1784 99.1763 10.6836L99.1763 9.7754C98.7889 9.9349 98.2681 10.0667 97.6138 10.1709C97.1581 10.2425 96.826 10.3809 96.6177 10.5859C96.4094 10.7878 96.3052 11.0287 96.3052 11.3086C96.3052 11.6113 96.411 11.8441 96.6226 12.0068C96.8374 12.1663 97.1109 12.2461 97.4429 12.2461L97.4429 12.2461ZM74.3197 14.5459L74.3197 3.6377L78.0405 3.6377L78.0405 5.7129L78.1528 5.7129C78.3806 5.0293 78.768 4.48894 79.3149 4.0918C79.865 3.69467 80.5193 3.4961 81.2778 3.4961C82.046 3.4961 82.7068 3.69793 83.2602 4.10157C83.8136 4.50521 84.1472 5.04232 84.2612 5.7129L84.3735 5.7129C84.559 5.04232 84.9513 4.50521 85.5502 4.10157C86.1524 3.69793 86.8588 3.4961 87.6694 3.4961C88.7175 3.4961 89.5671 3.83302 90.2182 4.50684C90.8692 5.17742 91.1947 6.07097 91.1947 7.18751L91.1947 14.5459L87.2738 14.5459L87.2738 8.1836C87.2738 7.70509 87.1518 7.33074 86.9076 7.06055C86.6667 6.78712 86.3429 6.6504 85.936 6.6504C85.5356 6.6504 85.2182 6.78712 84.9838 7.06055C84.7494 7.33074 84.6322 7.70509 84.6322 8.1836L84.6322 14.5459L80.8822 14.5459L80.8822 8.1836C80.8822 7.70509 80.7602 7.33074 80.516 7.06055C80.2751 6.78712 79.9513 6.6504 79.5444 6.6504C79.144 6.6504 78.8266 6.78712 78.5922 7.06055C78.3578 7.33074 78.2406 7.70509 78.2406 8.1836L78.2406 14.5459L74.3197 14.5459L74.3197 14.5459ZM72.3316 7.62939e-06L72.3316 14.5459L68.4107 14.5459L68.4107 7.62939e-06L72.3316 7.62939e-06L72.3316 7.62939e-06ZM61.4762 14.7461C59.7282 14.7461 58.3529 14.2497 57.3503 13.2568C56.3509 12.264 55.8512 10.8854 55.8512 9.1211C55.8512 7.9948 56.0775 7.0101 56.5299 6.167C56.9857 5.3239 57.6286 4.66798 58.4586 4.19923C59.2887 3.73048 60.2669 3.4961 61.3932 3.4961C62.4902 3.4961 63.444 3.72071 64.2545 4.16993C65.0684 4.61915 65.6982 5.26205 66.1442 6.09864C66.5934 6.93523 66.818 7.93295 66.818 9.0918L66.818 10L59.7135 10L59.7135 10.1709C59.7135 10.695 59.8763 11.1296 60.2018 11.4746C60.5273 11.8164 60.9814 11.9873 61.5641 11.9873C61.9645 11.9873 62.3144 11.9043 62.6139 11.7383C62.9167 11.569 63.125 11.3314 63.2389 11.0254L66.818 11.0254C66.6325 12.1615 66.0742 13.0664 65.1432 13.7402C64.2155 14.4108 62.9931 14.7461 61.4762 14.7461L61.4762 14.7461ZM59.7135 7.8418L63.2096 7.8418C63.1999 7.37305 63.0306 6.99057 62.7018 6.69434C62.373 6.39812 61.9645 6.25001 61.4762 6.25001C60.9977 6.25001 60.5859 6.39649 60.2409 6.68946C59.8991 6.98243 59.7233 7.36654 59.7135 7.8418L59.7135 7.8418ZM43.2953 14.5459L43.2953 7.62939e-06L47.2162 7.62939e-06L47.2162 5.542L47.2748 5.542C47.4864 4.98536 47.8477 4.50521 48.3588 4.10157C48.8699 3.69792 49.5307 3.4961 50.3412 3.4961C51.0606 3.4961 51.7458 3.68816 52.3969 4.07227C53.0479 4.45313 53.5785 5.05697 53.9887 5.8838C54.3988 6.70736 54.6039 7.7767 54.6039 9.0918C54.6039 10.3516 54.4086 11.3965 54.018 12.2266C53.6274 13.0534 53.1065 13.6703 52.4555 14.0772C51.8044 14.4841 51.0899 14.6875 50.3119 14.6875C49.5437 14.6875 48.9008 14.5052 48.3832 14.1406C47.8689 13.7728 47.4994 13.3106 47.2748 12.7539L47.1869 12.7539L47.1869 14.5459L43.2953 14.5459L43.2953 14.5459ZM47.1283 9.0918C47.1283 9.88607 47.283 10.516 47.5922 10.9815C47.9015 11.4437 48.3246 11.6748 48.8617 11.6748C49.4021 11.6748 49.8204 11.4469 50.1166 10.9912C50.4161 10.5355 50.5658 9.90235 50.5658 9.0918C50.5658 8.28126 50.4161 7.64812 50.1166 7.19239C49.8204 6.73341 49.4021 6.50391 48.8617 6.50391C48.3246 6.50391 47.9015 6.73341 47.5922 7.19239C47.283 7.64812 47.1283 8.28126 47.1283 9.0918L47.1283 9.0918ZM36.4195 14.7461C34.6714 14.7461 33.2961 14.2497 32.2935 13.2568C31.2942 12.264 30.7945 10.8854 30.7945 9.1211C30.7945 7.9948 31.0207 7.0101 31.4732 6.167C31.9289 5.3239 32.5718 4.66798 33.4019 4.19923C34.232 3.73048 35.2102 3.4961 36.3365 3.4961C37.4335 3.4961 38.3873 3.72071 39.1978 4.16993C40.0116 4.61915 40.6415 5.26205 41.0874 6.09864C41.5367 6.93523 41.7613 7.93295 41.7613 9.0918L41.7613 10L34.6568 10L34.6568 10.1709C34.6568 10.695 34.8195 11.1296 35.1451 11.4746C35.4706 11.8164 35.9247 11.9873 36.5074 11.9873C36.9078 11.9873 37.2577 11.9043 37.5572 11.7383C37.8599 11.569 38.0682 11.3314 38.1822 11.0254L41.7613 11.0254C41.5757 12.1615 41.0175 13.0664 40.0865 13.7402C39.1587 14.4108 37.9364 14.7461 36.4195 14.7461L36.4195 14.7461ZM34.6568 7.8418L38.1529 7.8418C38.1431 7.37305 37.9738 6.99057 37.6451 6.69434C37.3163 6.39812 36.9078 6.25001 36.4195 6.25001C35.941 6.25001 35.5292 6.39649 35.1841 6.68946C34.8423 6.98243 34.6665 7.36654 34.6568 7.8418L34.6568 7.8418ZM23.9488 14.7461C22.7639 14.7461 21.7499 14.5101 20.9068 14.0381C20.067 13.5661 19.4208 12.9085 18.9683 12.0654C18.5191 11.2191 18.2945 10.2376 18.2945 9.1211C18.2945 8.00131 18.5191 7.01986 18.9683 6.17677C19.4208 5.33041 20.067 4.67286 20.9068 4.20411C21.7499 3.73211 22.7639 3.4961 23.9488 3.4961C25.1337 3.4961 26.1461 3.73211 26.9859 4.20411C27.829 4.67286 28.4752 5.33041 28.9244 6.17677C29.3769 7.01986 29.6031 8.00131 29.6031 9.1211C29.6031 10.2376 29.3769 11.2191 28.9244 12.0654C28.4752 12.9085 27.829 13.5661 26.9859 14.0381C26.1461 14.5101 25.1337 14.7461 23.9488 14.7461L23.9488 14.7461ZM23.9781 11.8457C24.4762 11.8457 24.87 11.6016 25.1597 11.1133C25.4495 10.6218 25.5943 9.94793 25.5943 9.0918C25.5943 8.23568 25.4495 7.56348 25.1597 7.0752C24.87 6.58367 24.4762 6.3379 23.9781 6.3379C23.4508 6.3379 23.039 6.58367 22.7428 7.0752C22.4498 7.56348 22.3033 8.23568 22.3033 9.0918C22.3033 9.94793 22.4498 10.6218 22.7428 11.1133C23.039 11.6016 23.4508 11.8457 23.9781 11.8457L23.9781 11.8457ZM0 7.62939e-06L4.91699 7.62939e-06L8.2959 8.23731L8.4668 8.23731L11.8457 7.62939e-06L16.7627 7.62939e-06L16.7627 14.5459L12.8955 14.5459L12.8955 6.1377L12.7832 6.1377L9.5459 14.4336L7.2168 14.4336L3.97949 6.07911L3.8623 6.07911L3.8623 14.5459L0 14.5459L0 7.62939e-06L0 7.62939e-06Z" id="Moebelmacher" fill="#232323" stroke="none" />
</svg>